<svg xmlns="http://www.w3.org/2000/svg" xmlns:xlink="http://www.w3.org/1999/xlink" width="500" zoomAndPan="magnify" viewBox="0 0 375 374.999991" height="500" preserveAspectRatio="xMidYMid meet" version="1.0"><defs><g/><clipPath id="081ed46892"><path d="M 15.257812 15.257812 L 359.742188 15.257812 L 359.742188 359.742188 L 15.257812 359.742188 Z M 15.257812 15.257812 " clip-rule="nonzero"/></clipPath><clipPath id="09c8b5cc37"><path d="M 187.5 15.257812 C 92.371094 15.257812 15.257812 92.371094 15.257812 187.5 C 15.257812 282.628906 92.371094 359.742188 187.5 359.742188 C 282.628906 359.742188 359.742188 282.628906 359.742188 187.5 C 359.742188 92.371094 282.628906 15.257812 187.5 15.257812 Z M 187.5 15.257812 " clip-rule="nonzero"/></clipPath><clipPath id="41dc5be46d"><path d="M 242.371094 199.332031 L 317.371094 199.332031 L 317.371094 274.332031 L 242.371094 274.332031 Z M 242.371094 199.332031 " clip-rule="nonzero"/></clipPath></defs><g clip-path="url(#081ed46892)"><g clip-path="url(#09c8b5cc37)"><path fill="#6a67af" d="M 15.257812 15.257812 L 359.742188 15.257812 L 359.742188 359.742188 L 15.257812 359.742188 Z M 15.257812 15.257812 " fill-opacity="1" fill-rule="nonzero"/></g></g><g fill="#ffffff" fill-opacity="1"><g transform="translate(63.12896, 274.524891)"><g><path d="M 6.109375 -170.90625 L 80.578125 -170.90625 L 80.578125 -166.265625 L 67.140625 -166.265625 L 67.140625 -89.109375 L 69.09375 -89.609375 L 137.953125 -166.265625 L 118.65625 -166.265625 L 118.65625 -170.90625 L 161.390625 -170.90625 L 161.390625 -166.265625 L 146.734375 -166.265625 L 104.75 -119.390625 L 163.34375 -4.640625 L 176.53125 -4.640625 L 176.53125 0 L 98.15625 0 L 98.15625 -4.640625 L 109.625 -4.640625 L 69.34375 -82.53125 L 67.140625 -82.03125 L 67.140625 -4.640625 L 80.578125 -4.640625 L 80.578125 0 L 6.109375 0 L 6.109375 -4.640625 L 19.53125 -4.640625 L 19.53125 -166.265625 L 6.109375 -166.265625 Z M 6.109375 -170.90625 "/></g></g></g><g clip-path="url(#41dc5be46d)"><path fill="#ffffff" d="M 280 199.332031 C 259.160156 199.332031 242.371094 216.121094 242.371094 236.960938 C 242.371094 257.804688 259.160156 274.589844 280 274.589844 C 300.839844 274.589844 317.628906 257.804688 317.628906 236.960938 C 317.628906 216.121094 300.839844 199.332031 280 199.332031 Z M 291.578125 216.699219 C 294.761719 216.699219 297.367188 219.304688 297.367188 222.488281 C 297.367188 225.675781 294.761719 228.277344 291.578125 228.277344 C 288.394531 228.277344 285.789062 225.675781 285.789062 222.488281 C 285.789062 219.304688 288.394531 216.699219 291.578125 216.699219 Z M 265.527344 219.59375 C 267.265625 219.59375 268.421875 220.753906 268.421875 222.488281 C 268.421875 220.753906 269.578125 219.59375 271.316406 219.59375 C 273.054688 219.59375 274.210938 220.753906 274.210938 222.488281 C 274.210938 225.675781 271.605469 228.277344 268.421875 228.277344 C 265.238281 228.277344 262.632812 225.675781 262.632812 222.488281 C 262.632812 220.753906 263.789062 219.59375 265.527344 219.59375 Z M 280 260.117188 C 267.265625 260.117188 256.84375 251.144531 256.84375 239.855469 C 256.84375 238.121094 258 236.960938 259.738281 236.960938 C 261.476562 236.960938 262.632812 238.121094 262.632812 239.855469 C 262.632812 247.960938 270.449219 254.328125 280 254.328125 C 289.550781 254.328125 297.367188 247.960938 297.367188 239.855469 C 297.367188 238.121094 298.523438 236.960938 300.261719 236.960938 C 301.996094 236.960938 303.15625 238.121094 303.15625 239.855469 C 303.15625 251.144531 292.734375 260.117188 280 260.117188 Z M 280 260.117188 " fill-opacity="1" fill-rule="nonzero"/></g></svg>